<svg width="119" height="23" viewBox="0 0 119 23" fill="none" xmlns="http://www.w3.org/2000/svg">
<path d="M13.4404 0.346548V9.39564H4.53207V0.346548H0.527344V22.672H4.53207V13.3731H13.4404V22.672H17.4452V0.346548H13.4404ZM106.116 4.32401H110.575C112.404 4.32401 113.886 5.79564 113.886 7.61091C113.886 9.42728 112.404 10.8989 110.575 10.8989H106.116V4.32401ZM102.114 0.346548V22.672H106.118V12.7371L114.453 22.672H119.657L112.824 14.5338C116.254 13.4429 118.375 10.0393 117.826 6.50582C117.278 2.97237 114.222 0.359639 110.622 0.346548H102.107H102.114ZM64.2397 0.280004V14.2109L54.5186 0.280004H51.3201V22.6033H55.3259V8.6091L65.095 22.6044H68.239V0.280004H64.2397ZM26.8542 11.4945C26.8564 7.36546 30.2284 4.01964 34.3859 4.02073C38.5444 4.02291 41.9132 7.37091 41.9121 11.5C41.911 15.6291 38.5412 18.976 34.3826 18.976C32.3852 18.976 30.4706 18.1884 29.059 16.7866C27.6473 15.3847 26.8542 13.4822 26.8542 11.4989V11.4945ZM22.8495 11.4989C22.8495 16.1331 25.6586 20.3091 29.9688 22.0829C34.279 23.8556 39.2393 22.8771 42.5383 19.6011C45.8372 16.3251 46.8244 11.3986 45.0386 7.11782C43.2539 2.83709 39.0473 0.0465488 34.3826 0.0465488C28.0161 0.0476398 22.855 5.17164 22.8517 11.4956L22.8495 11.4989ZM77.6502 11.4945C77.6524 7.36546 81.0244 4.01855 85.183 4.02073C89.3415 4.02291 92.7092 7.372 92.707 11.5011C92.7059 15.6302 89.3339 18.9771 85.1753 18.9749C83.179 18.9749 81.2644 18.1873 79.8517 16.7855C78.439 15.3836 77.647 13.4811 77.647 11.4978L77.6502 11.4945ZM73.6423 11.4989C73.6412 16.1331 76.4513 20.3091 80.7604 22.0829C85.0706 23.8556 90.0321 22.8771 93.3299 19.6011C96.6277 16.3251 97.6172 11.3986 95.8303 7.11782C94.0455 2.83709 89.8401 0.0465488 85.1742 0.0465488C78.8077 0.0476398 73.6455 5.17164 73.6423 11.4956V11.4989Z" fill="black"/>
</svg>
