<svg width="91" height="45" viewBox="0 0 91 45" fill="none" xmlns="http://www.w3.org/2000/svg">
<path d="M4.12004 44.3333C3.79163 44.2528 3.26418 44.072 2.94791 43.9316C2.26359 43.6279 0.973513 42.3867 0.613077 41.6852C-0.02103 40.451 8.22896e-05 41.0586 8.22896e-05 24.0432C8.22896e-05 13.1503 0.0404457 8.04384 0.130371 7.56085C0.455987 5.81193 1.86686 4.20834 3.58565 3.63358C4.19697 3.42916 4.79815 3.41495 12.8376 3.41495H21.4358L22.2429 3.79455C23.6451 4.45404 24.6949 5.65668 25.14 7.1132C25.3469 7.79018 25.3848 11.1117 25.1934 11.7958C25.0985 12.1351 24.666 12.615 23.2506 13.9513C21.0288 16.0488 20.8908 16.1583 20.3582 16.2441C19.568 16.3714 19.1172 15.6403 19.5149 14.8765C19.6866 14.5469 20.8963 13.3588 22.3702 12.0722L23.1833 11.3624L23.1455 9.58224C23.1116 7.98852 23.0783 7.74621 22.8279 7.26852C22.4488 6.54549 22.141 6.23481 21.4358 5.86357L20.8387 5.54923H12.6585H4.47829L3.8812 5.86357C3.1291 6.25951 2.84059 6.56819 2.45724 7.38709L2.15196 8.03923L2.15076 15.776C2.14981 22.3446 2.17495 23.5128 2.31749 23.5128C2.40983 23.5128 4.64469 21.3919 7.28384 18.7996C9.92299 16.2073 12.2437 14.0175 12.441 13.9334C12.7517 13.8009 12.8441 13.8088 13.1308 13.9927C13.3128 14.1094 15.7794 16.4726 18.6122 19.2442C21.4449 22.0158 23.8302 24.2835 23.9128 24.2835C24.014 24.2835 24.0945 23.9552 24.1599 23.2757C24.292 21.9009 24.3023 21.8637 24.7221 21.2344C25.0247 20.7808 30.9276 15.1408 32.65 13.6596C33.3553 13.0531 33.814 11.8275 33.4249 11.5887C33.1649 11.4292 32.8455 10.5184 32.8455 9.93638C32.8455 9.16048 33.1674 8.48207 33.7844 7.95771C34.8043 7.09089 36.1265 7.08736 37.14 7.94874C38.9261 9.46671 38.1074 12.1444 35.7024 12.6507C35.4666 12.7004 35.3695 12.8265 35.2625 13.2225C35.1085 13.7919 34.8457 14.0591 29.4674 19.1144C26.2207 22.1661 26.0437 22.3836 25.5864 23.884C25.4191 24.4329 25.3822 25.6155 25.319 32.4649C25.2662 38.1905 25.2054 40.5286 25.1013 40.8368C24.8769 41.5012 24.0961 42.624 23.515 43.1179C22.8405 43.6911 21.7326 44.2287 20.9119 44.3807C19.929 44.5629 4.88275 44.5204 4.12004 44.3333ZM21.3514 42.0228C21.7078 41.8629 22.1648 41.529 22.399 41.2572C23.1615 40.3727 23.1674 40.311 23.1674 33.113V26.6305L18.0196 21.6035C15.1883 18.8386 12.8246 16.5588 12.7669 16.5374C12.7092 16.516 10.2967 18.8065 7.4058 21.6274L2.14962 26.7563V33.1933C2.14962 38.7835 2.1748 39.7049 2.34103 40.1976C2.58283 40.9143 2.97876 41.4389 3.53618 41.7809C4.49771 42.371 4.31937 42.3603 12.7779 42.3325L20.7193 42.3064L21.3514 42.0228ZM6.8143 36.4667C6.67242 36.3526 6.50653 36.0458 6.44566 35.7849C6.29535 35.1408 6.2994 29.5124 6.45073 28.7165C6.57009 28.0888 6.61688 28.0333 9.16751 25.4959C12.1012 22.5774 12.5252 22.2313 12.9651 22.3954C13.1266 22.4557 14.5152 23.7508 16.0509 25.2736C18.1178 27.3229 18.862 28.1354 18.9154 28.4009C18.9552 28.5982 18.9877 30.3762 18.9877 32.3521V35.9446L18.6785 36.3094L18.3694 36.6742H12.7208C7.51912 36.6742 7.05185 36.6578 6.8143 36.4667ZM16.8143 34.5162C17.0062 34.3256 17.0161 29.5405 16.8253 29.1668C16.5784 28.6831 12.971 25.1728 12.7209 25.1728C12.5711 25.1728 11.7348 25.9136 10.4804 27.1576L8.47883 29.1423V31.8214C8.47883 33.2948 8.51465 34.536 8.55844 34.5795C8.60222 34.6229 10.4455 34.6585 12.6545 34.6585C15.6192 34.6585 16.7085 34.6213 16.8143 34.5162ZM11.1725 32.6164C11.0292 32.4132 10.9866 32.025 10.9866 30.9198C10.9866 28.9712 10.9346 29.0264 12.7726 29.0264C13.9289 29.0264 14.2424 29.0621 14.3329 29.2042C14.3952 29.3021 14.4469 30.0853 14.4479 30.9447C14.4494 32.2089 14.4139 32.5429 14.2621 32.6936C14.1135 32.8412 13.7918 32.8799 12.7164 32.8799C11.4485 32.8799 11.3461 32.8625 11.1725 32.6164ZM36.0944 10.5651C36.4152 10.1968 36.3587 9.67655 35.9544 9.27512C35.541 8.86465 35.5191 8.86201 35.0229 9.16243C34.5574 9.44422 34.4066 9.91681 34.6467 10.3414C34.9923 10.9528 35.6661 11.0569 36.0944 10.5651ZM71.6612 43.0138C70.8882 42.7997 70.4167 42.5237 69.8777 41.9698C69.5945 41.6789 69.5071 41.5069 69.5791 41.3825C69.7283 41.1251 70.6941 40.3499 70.8657 40.3499C70.9466 40.3499 71.143 40.4904 71.3022 40.662C72.1798 41.608 74.0178 41.6703 74.7247 40.7779C75.0171 40.4089 75.3102 39.311 75.157 39.1589C75.0959 39.0983 74.7503 39.2065 74.3367 39.4158C73.6721 39.752 73.5499 39.7742 72.5984 39.7318C71.7378 39.6934 71.4826 39.6323 70.9935 39.3477C70.2741 38.9291 69.9259 38.5637 69.5193 37.8007C69.233 37.2634 69.2034 37.0854 69.2034 35.9035C69.2034 34.763 69.2397 34.5259 69.4927 34.0155C70.0849 32.8209 71.1758 32.0605 72.4426 31.9596C73.3956 31.8836 73.9098 31.9848 74.4621 32.357C74.9211 32.6662 75.0597 32.6396 75.1345 32.2278C75.1736 32.0126 75.2715 31.9907 76.191 31.9907H77.2044V36.2592C77.2044 40.3692 77.1949 40.5482 76.9492 41.0759C76.5817 41.8651 75.9229 42.5335 75.2032 42.8476C74.3978 43.1989 72.6292 43.2819 71.6612 43.0138ZM74.1604 37.7117C74.8944 37.2157 75.0549 36.8807 75.0549 35.8442C75.0549 35.0887 75.0084 34.8513 74.8087 34.5856C74.3408 33.9634 73.9591 33.7692 73.2039 33.7692C72.4544 33.7692 72.0666 33.9638 71.6123 34.5681C71.353 34.9129 71.2221 35.8458 71.3431 36.4862C71.5718 37.6968 73.1601 38.3877 74.1604 37.7117ZM62.8741 40.1275C61.6229 39.8006 60.9037 38.8907 60.9037 37.6343C60.9037 36.9023 61.0207 36.5894 61.4554 36.1584C62.1402 35.4793 62.6169 35.3298 64.2743 35.2744C66.0026 35.2165 66.1697 35.1402 65.9135 34.526C65.7184 34.0583 65.1521 33.711 64.5836 33.7104C63.9993 33.7098 63.6454 33.8546 63.1274 34.3061C62.6993 34.6793 62.6945 34.6803 62.0692 34.5301C61.166 34.3132 61.0853 34.2125 61.3291 33.6075C61.5821 32.9797 62.3068 32.3602 63.1632 32.0395C63.7053 31.8366 64.0187 31.7993 64.8446 31.8397C66.046 31.8985 66.869 32.252 67.4638 32.9648C68.1077 33.7364 68.1969 34.2885 68.1608 37.2758L68.1286 39.9349L67.2329 40.0201C66.3787 40.1014 66.3268 40.0921 66.1095 39.8186L65.8817 39.5319L65.3542 39.8388C64.7864 40.1692 63.5739 40.3103 62.8741 40.1275ZM65.3222 38.3342C65.6883 38.1488 65.8222 37.9914 65.9368 37.6118C66.1621 36.865 66.0206 36.7405 64.8997 36.6985C63.8228 36.6581 63.3228 36.8159 63.1573 37.2481C62.7834 38.2246 64.1676 38.9191 65.3222 38.3342ZM80.5481 39.8865C78.8746 39.0813 78.1095 37.6542 78.2512 35.602C78.3265 34.5109 78.6975 33.6725 79.4396 32.9165C80.1949 32.1469 80.9276 31.8732 82.22 31.8779C83.1435 31.8813 83.3903 31.9277 83.9733 32.2078C85.1355 32.7662 85.7708 33.6979 86.0038 35.1861C86.1089 35.8574 86.1092 36.1473 86.0051 36.3741L85.8674 36.6742L83.2675 36.676C81.8375 36.677 80.5932 36.7246 80.5023 36.7818C80.2569 36.9361 80.6806 37.7272 81.1884 38.063C82.042 38.6274 82.935 38.5356 83.808 37.7937L84.3103 37.3668L84.898 37.5606C85.9388 37.9038 85.9604 38.2036 85.0179 39.2189C84.3529 39.9352 83.5417 40.2314 82.2454 40.2313C81.4067 40.2312 81.1609 40.1813 80.5481 39.8865ZM83.7848 35.0842C83.874 34.8534 83.5434 34.2557 83.1616 33.9576C82.7735 33.6544 81.7293 33.6186 81.2002 33.8902C80.763 34.1147 80.3175 34.9157 80.5188 35.1155C80.734 35.3292 83.7012 35.3008 83.7848 35.0842ZM43.1436 39.9646C43.0801 39.8831 42.6637 38.8293 42.2183 37.6228C41.4584 35.5646 40.4059 32.7257 39.4532 30.1643C39.2251 29.5511 39.0663 28.9776 39.1003 28.8897C39.1893 28.6593 41.2347 28.6641 41.4278 28.8951C41.5037 28.9859 42.1526 30.8882 42.8697 33.1224C43.5868 35.3565 44.2245 37.2351 44.2869 37.297C44.3905 37.3999 44.8137 36.1782 46.6382 30.5085C46.8796 29.7585 47.1619 29.0496 47.2656 28.9331C47.4241 28.7551 47.6174 28.7268 48.4767 28.7553L49.4992 28.7892L49.4761 29.2066C49.4634 29.4362 48.9982 30.8235 48.4424 32.2895C47.8865 33.7555 47.0183 36.0488 46.5129 37.3857C46.0076 38.7225 45.5392 39.8831 45.4721 39.9646C45.3913 40.0626 44.9962 40.1128 44.3045 40.1128C43.6092 40.1128 43.2203 40.0631 43.1436 39.9646ZM50.4117 39.9551C50.31 39.8334 50.2807 38.7304 50.3036 35.8894L50.3352 31.9907H51.3502H52.3653V36.0221V40.0535L51.4583 40.0878C50.7905 40.1131 50.5145 40.0781 50.4117 39.9551ZM54.3954 39.9995L54.0371 39.9326V34.3609V28.7892H55.0522H56.0673L56.0983 34.3357C56.1228 38.714 56.0977 39.892 55.9789 39.9289C55.6752 40.023 54.7436 40.0646 54.3954 39.9995ZM58.2168 40.0095L57.7391 39.9349V34.3621V28.7892L58.616 28.7542C59.1596 28.7324 59.5567 28.7717 59.6609 28.8576C59.8009 28.973 59.829 29.9031 59.829 34.4289C59.829 37.4169 59.7887 39.8853 59.7394 39.9143C59.5495 40.0258 58.6727 40.0806 58.2168 40.0095ZM50.5088 30.7753C49.8325 30.1753 49.9103 29.066 50.6606 28.6119C51.705 27.9796 52.9067 28.7599 52.744 29.9646C52.6509 30.6543 52.1262 31.1014 51.4099 31.1014C50.9965 31.1014 50.7935 31.0279 50.5088 30.7753ZM50.0084 25.7724C48.9543 25.4371 47.8806 24.3194 47.53 23.1924C46.9638 21.3723 47.4079 19.5362 48.6839 18.421C49.388 17.8057 50.1609 17.5605 51.3969 17.5605C52.6311 17.5605 53.4052 17.8608 54.0999 18.6091C54.828 19.3934 55.0792 20.0612 55.097 21.2599L55.1119 22.2678L52.4344 22.2998C50.7425 22.32 49.6998 22.3788 49.6017 22.4596C49.4762 22.563 49.4924 22.6766 49.6867 23.0548C50.2672 24.1845 51.802 24.4382 52.775 23.5654C53.2945 23.0994 53.5852 23.0663 54.3058 23.391C54.6534 23.5477 54.8134 23.6935 54.8134 23.8535C54.8134 24.2171 54.0897 25.0711 53.4473 25.4654C52.9074 25.7969 52.7752 25.8244 51.6005 25.8494C50.9045 25.8642 50.1881 25.8296 50.0084 25.7724ZM52.8636 20.7156C53.0071 20.3444 52.5725 19.7175 51.9961 19.4644C51.5148 19.253 51.3827 19.2413 50.8657 19.3644C50.0381 19.5616 49.2776 20.4668 49.6385 20.8252C49.6823 20.8687 50.4095 20.9042 51.2545 20.9042C52.5489 20.9042 52.8022 20.8745 52.8636 20.7156ZM58.6773 25.644C57.7862 25.294 57.0407 24.5881 56.5792 23.6573C56.2144 22.9215 56.1867 22.7817 56.1873 21.6774C56.1879 20.6249 56.2262 20.408 56.5226 19.7778C56.9486 18.8721 57.8395 18.0244 58.6443 17.7589C59.4656 17.4881 61.3682 17.5535 62.0267 17.8751C62.9088 18.306 63.8337 19.509 63.747 20.113C63.713 20.3499 63.6323 20.3734 62.7425 20.4048L61.7749 20.439L61.4661 20.0369C61.1099 19.5732 60.3105 19.291 59.7188 19.4201C58.7803 19.6247 58.1919 20.6971 58.3098 21.9878C58.3782 22.7368 58.8284 23.6584 59.1988 23.8077C60.1739 24.2008 60.7956 24.0874 61.4914 23.3897C61.9335 22.9463 62 22.9199 62.6759 22.9199C63.0697 22.9199 63.477 22.9523 63.5809 22.9919C64.2114 23.2321 63.1664 24.9806 62.0464 25.5597C61.3274 25.9314 59.524 25.9765 58.6773 25.644ZM85.0264 25.7005C84.3802 25.4994 83.4012 24.782 83.0333 24.24C82.1091 22.8783 82.0382 20.7693 82.8717 19.4302C83.2652 18.7981 84.2048 18.0225 84.8574 17.7911C85.7161 17.4867 87.3236 17.5094 88.2093 17.8384C89.0287 18.1428 89.8617 18.9207 90.2859 19.7778C90.714 20.6428 90.7662 22.3336 90.3955 23.3349C90.036 24.3062 88.9427 25.3894 88.028 25.6804C87.2526 25.9271 85.7861 25.9369 85.0264 25.7005ZM87.542 23.8052C87.7296 23.7089 88.033 23.3769 88.2162 23.0675C88.8738 21.9567 88.5661 20.3151 87.5878 19.7148C86.4608 19.0232 85.1329 19.4618 84.6129 20.6973C84.0806 21.9623 84.731 23.6297 85.8929 23.9784C86.3608 24.1188 87.0779 24.0435 87.542 23.8052ZM42.81 25.6221C42.7783 25.538 42.7389 23.495 42.7224 21.0821L42.6923 16.6949L41.1476 16.6616C40.2585 16.6424 39.5363 16.5733 39.4459 16.4989C39.284 16.3654 39.2239 15.1633 39.3614 14.8075C39.4257 14.6412 39.9319 14.6199 43.8354 14.6199C48.0648 14.6199 48.2418 14.6289 48.3605 14.8493C48.5397 15.1817 48.5162 16.3431 48.3272 16.4989C48.2368 16.5733 47.5146 16.6424 46.6254 16.6616L45.0807 16.6949L45.021 21.2007L44.9613 25.7064L43.9144 25.7407C43.1438 25.7659 42.8524 25.7346 42.81 25.6221ZM65.0471 25.6814C65.0162 25.6299 64.9516 23.1271 64.9035 20.1196C64.8417 16.2508 64.8538 14.6283 64.9449 14.5724C65.2082 14.4108 66.5923 14.3513 66.8539 14.4903C67.1026 14.6225 67.1135 14.7025 67.1135 16.3957C67.1135 17.3678 67.1636 18.1938 67.2247 18.2313C67.2859 18.2689 67.5372 18.1639 67.7832 17.9982C68.3709 17.6022 68.6188 17.5497 69.6515 17.6029C70.3856 17.6406 70.5992 17.7038 71.0588 18.0192C71.3959 18.2504 71.7345 18.6307 71.9545 19.0251L72.3082 19.6592V22.6828V25.7064H71.2932H70.2781L70.2763 23.2757C70.274 20.3023 70.2857 20.4089 69.9159 19.9727C69.2719 19.2127 67.9944 19.2276 67.4383 20.0017C67.1883 20.3496 67.1698 20.5228 67.1135 23.0385L67.0538 25.7064L66.0785 25.7407C65.5421 25.7595 65.078 25.7328 65.0471 25.6814ZM73.8735 25.5781C73.8336 25.475 73.801 23.7452 73.801 21.7342C73.801 19.7233 73.8336 17.9935 73.8735 17.8904C73.9311 17.7412 74.1394 17.7028 74.8915 17.7028C75.8003 17.7028 75.8416 17.7148 75.9553 18.0117C76.0728 18.3186 76.0757 18.3192 76.4002 18.108C76.5798 17.991 76.8611 17.8257 77.0253 17.7405C77.419 17.5363 78.9579 17.5406 79.456 17.7473C80.0839 18.0077 80.6751 18.6007 80.9773 19.273C81.2401 19.8575 81.2604 20.0684 81.3022 22.6572C81.3353 24.7068 81.3094 25.4628 81.2016 25.5919C80.9915 25.8432 79.2289 25.8396 79.1316 25.5876C79.0937 25.4897 79.0961 24.3817 79.1368 23.1254C79.2056 21.0018 79.1939 20.8033 78.9701 20.301C78.4411 19.1136 76.8571 19.0689 76.2217 20.2236C76.0388 20.5559 76.0102 20.9364 76.0102 23.0385C76.0102 24.3754 75.9668 25.5359 75.9136 25.6174C75.8499 25.7152 75.4988 25.7657 74.8815 25.7657C74.1386 25.7657 73.931 25.727 73.8735 25.5781ZM22.1012 18.4575C21.5742 17.7922 21.7309 17.5831 24.9775 14.6194C26.5106 13.2199 27.9396 11.9058 28.1531 11.6992L28.5412 11.3237V8.68495V6.04624L27.8339 5.41074C26.945 4.61205 26.6887 4.01898 26.7835 2.98086C26.8621 2.12015 27.2543 1.48165 28.0422 0.931851C28.7267 0.454121 29.9257 0.359566 30.6495 0.726222C31.1814 0.995632 31.9552 1.78896 32.1291 2.24316C32.2797 2.63655 32.2733 3.65836 32.1166 4.21855C31.9717 4.73676 31.4036 5.42444 30.9119 5.67691L30.5713 5.85175V8.69571C30.5713 11.3224 30.5525 11.5795 30.3247 12.0606C30.1426 12.4452 29.4054 13.1973 27.5074 14.9347C23.1442 18.9286 23.3384 18.7699 22.8125 18.7699C22.4537 18.7699 22.2927 18.6992 22.1012 18.4575ZM29.8957 4.05402C30.1796 3.92558 30.4519 3.50175 30.4519 3.18822C30.4519 2.86496 29.9626 2.40709 29.6171 2.40709C29.1114 2.40709 28.9102 2.51673 28.7098 2.90167C28.4917 3.32034 28.5711 3.62423 28.9823 3.94543C29.3342 4.22023 29.4879 4.23851 29.8957 4.05402ZM10.3404 8.68228C9.94885 8.22022 9.94845 7.86148 10.3391 7.49669C10.6369 7.21859 10.7147 7.20802 12.729 7.17194L14.811 7.13463L15.1678 7.48888C15.6169 7.93481 15.6189 8.26018 15.1755 8.7005L14.8264 9.04709H12.738H10.6496L10.3404 8.68228Z" fill="#42AAFF"/>
</svg>
