<?xml version="1.0" encoding="UTF-8" standalone="no"?>
<svg
   width="122"
   height="29"
   viewBox="0 0 122 29"
   fill="none"
   version="1.1"
   id="svg6"
   sodipodi:docname="realme.svg"
   inkscape:version="1.3.2 (091e20e, 2023-11-25, custom)"
   xmlns:inkscape="http://www.inkscape.org/namespaces/inkscape"
   xmlns:sodipodi="http://sodipodi.sourceforge.net/DTD/sodipodi-0.dtd"
   xmlns="http://www.w3.org/2000/svg"
   xmlns:svg="http://www.w3.org/2000/svg">
  <sodipodi:namedview
     id="namedview6"
     pagecolor="#ffffff"
     bordercolor="#000000"
     borderopacity="0.25"
     inkscape:showpageshadow="2"
     inkscape:pageopacity="0.0"
     inkscape:pagecheckerboard="0"
     inkscape:deskcolor="#d1d1d1"
     inkscape:zoom="8.4057377"
     inkscape:cx="66.680644"
     inkscape:cy="7.316431"
     inkscape:window-width="2560"
     inkscape:window-height="1369"
     inkscape:window-x="-8"
     inkscape:window-y="-8"
     inkscape:window-maximized="1"
     inkscape:current-layer="g6" />
  <g
     clip-path="url(#clip0_137_2675)"
     id="g6">
    <path
       d="M13.4713 7.22219H3.69247H0.043457V10.8712V27.2786H3.69247V10.8712H13.4713V7.22219Z"
       fill="black"
       fill-opacity="0.5"
       id="path1"
       style="fill:#000000;fill-opacity:1" />
    <path
       d="M65.7779 0.527975H62.1289V27.2786H65.7779V0.527975Z"
       fill="black"
       fill-opacity="0.5"
       id="path2"
       style="fill:#000000;fill-opacity:1" />
    <path
       d="M54.8179 7.22216V9.66358C54.8179 9.66358 53.6628 8.11472 51.3658 7.27466C50.2895 6.90714 49.1344 6.69712 47.9268 6.69712C42.0989 6.69712 37.3735 11.4225 37.3735 17.2504C37.3735 23.0783 42.0989 27.8036 47.9268 27.8036C49.1344 27.8036 50.2895 27.5936 51.3658 27.2261C53.6628 26.386 54.8179 24.8372 54.8179 24.8372V27.2786H58.4669V7.22216H54.8179ZM47.9137 24.2334C44.0546 24.2334 40.9307 21.1094 40.9307 17.2504C40.9307 13.3913 44.0546 10.2674 47.9137 10.2674C51.7727 10.2674 54.8967 13.3913 54.8967 17.2504C54.9098 21.1094 51.7727 24.2334 47.9137 24.2334Z"
       fill="black"
       fill-opacity="0.5"
       id="path3"
       style="fill:#000000;fill-opacity:1" />
    <path
       d="M97.6874 11.3962C96.5192 8.61351 93.9334 6.69712 90.6651 6.69712C87.8955 6.69712 85.5328 8.08847 84.1152 10.2017C82.9208 8.08847 80.8469 6.69712 78.0773 6.69712C75.9509 6.69712 74.2708 7.58969 73.0894 8.99416V7.22216H69.4404V27.2917H73.0894V15.2159C73.0894 14.2839 73.2207 13.562 73.4438 13.0238C74.1264 11.4093 75.7278 10.2805 77.5785 10.2805C79.4424 10.2805 81.0306 11.4093 81.7132 13.0238C81.9363 13.562 82.0676 14.2839 82.0676 15.2159V27.2917H85.7166V15.2159C85.7166 14.2839 85.8479 13.562 86.071 13.0238C86.7535 11.4093 88.3549 10.2805 90.2057 10.2805C92.0564 10.2805 93.6578 11.4093 94.3403 13.0238C94.5635 13.562 94.6947 14.2839 94.6947 15.2159V27.2917H98.3437V15.7803C98.37 13.9951 98.1337 12.4463 97.6874 11.3962Z"
       fill="black"
       fill-opacity="0.5"
       id="path4"
       style="fill:#000000;fill-opacity:1" />
    <path
       d="M32.399 9.71616C28.3431 5.6865 21.3994 5.6865 17.3435 9.71616C13.3139 13.7721 13.3139 20.7157 17.3435 24.7716C19.3781 26.7799 22.1214 27.7906 24.8778 27.7906C27.8443 27.7906 30.8107 26.7799 33.0028 24.7716C33.6328 24.1941 34.1579 23.5378 34.6041 22.8552L31.3227 20.952C31.0339 21.4114 30.6795 21.8314 30.2726 22.2252C28.8156 23.564 26.8598 24.2203 24.8909 24.2203C23.0664 24.2203 21.2419 23.5509 19.9031 22.2252C18.9712 21.2932 18.3805 20.1119 18.0917 18.8781H31.6902H34.9192H35.2998C35.7592 15.6228 34.8142 12.1576 32.399 9.71616ZM18.0655 15.6097C18.3411 14.3627 18.9449 13.1945 19.8768 12.2626C22.5677 9.59803 27.1617 9.59803 29.8526 12.2626C30.7845 13.2077 31.3883 14.3759 31.6639 15.6097H18.0655Z"
       fill="black"
       fill-opacity="0.5"
       id="path5"
       style="fill:#000000;fill-opacity:1" />
    <path
       d="M118.715 9.71616C114.659 5.6865 107.715 5.6865 103.659 9.71616C99.6298 13.7721 99.6298 20.7157 103.659 24.7716C105.694 26.7799 108.437 27.7906 111.194 27.7906C114.16 27.7906 117.127 26.7799 119.319 24.7716C119.949 24.1941 120.474 23.5378 120.92 22.8552L117.639 20.952C117.35 21.4114 116.995 21.8314 116.588 22.2252C115.132 23.564 113.176 24.2203 111.207 24.2203C109.382 24.2203 107.558 23.5509 106.219 22.2252C105.287 21.2932 104.696 20.1119 104.408 18.8781H118.006H121.235H121.616C122.088 15.6228 121.13 12.1576 118.715 9.71616ZM104.381 15.6097C104.657 14.3627 105.261 13.1945 106.193 12.2626C108.884 9.59803 113.478 9.59803 116.168 12.2626C117.1 13.2077 117.704 14.3759 117.98 15.6097H104.381Z"
       fill="black"
       fill-opacity="0.5"
       id="path6"
       style="fill:#000000;fill-opacity:1" />
  </g>
  <defs
     id="defs6">
    <clipPath
       id="clip0_137_2675">
      <rect
         width="122"
         height="27.9441"
         fill="white"
         transform="translate(0 0.527931)"
         id="rect6" />
    </clipPath>
  </defs>
</svg>
