<?xml version="1.0" encoding="UTF-8" standalone="no"?>
<svg
   width="98"
   height="25"
   viewBox="0 0 98 25"
   fill="none"
   version="1.1"
   id="svg5"
   sodipodi:docname="redmi.svg"
   inkscape:version="1.3.2 (091e20e, 2023-11-25, custom)"
   xmlns:inkscape="http://www.inkscape.org/namespaces/inkscape"
   xmlns:sodipodi="http://sodipodi.sourceforge.net/DTD/sodipodi-0.dtd"
   xmlns="http://www.w3.org/2000/svg"
   xmlns:svg="http://www.w3.org/2000/svg">
  <defs
     id="defs5" />
  <sodipodi:namedview
     id="namedview5"
     pagecolor="#ffffff"
     bordercolor="#000000"
     borderopacity="0.25"
     inkscape:showpageshadow="2"
     inkscape:pageopacity="0.0"
     inkscape:pagecheckerboard="0"
     inkscape:deskcolor="#d1d1d1"
     inkscape:zoom="10.464286"
     inkscape:cx="58.054607"
     inkscape:cy="-0.71672355"
     inkscape:window-width="2560"
     inkscape:window-height="1369"
     inkscape:window-x="-8"
     inkscape:window-y="-8"
     inkscape:window-maximized="1"
     inkscape:current-layer="svg5" />
  <path
     d="M1.36607 1.53503C1.33304 1.54103 1.288 1.56205 1.26999 1.57706C1.23996 1.60108 1.23096 3.81989 1.23096 12.485C1.23096 22.9815 1.23396 23.3598 1.285 23.4079C1.33604 23.4559 1.5252 23.4589 3.3717 23.4589C5.35032 23.4589 5.40736 23.4559 5.46441 23.3989C5.52146 23.3418 5.52146 23.2427 5.52446 14.5807C5.52446 6.31492 5.52746 5.81652 5.5755 5.78049C5.61753 5.75046 6.34112 5.74446 9.17243 5.74746C11.121 5.75046 12.8114 5.76247 12.9255 5.77448C13.1927 5.80751 13.6881 5.95163 13.9013 6.05972C14.3487 6.2879 14.811 6.67522 15.1233 7.08956C15.2164 7.21266 15.3575 7.46186 15.4445 7.66002C15.6577 8.1284 15.7178 8.44066 15.7148 9.01713C15.7118 9.5906 15.6457 9.88183 15.4025 10.3772C15.0242 11.1519 14.4597 11.6713 13.6581 11.9835C13.0726 12.2087 13.2317 12.1997 9.94707 12.1997C7.6562 12.1997 6.99566 12.2087 6.93561 12.2388C6.86055 12.2748 6.86055 12.2808 6.85154 12.7071C6.84253 13.2025 6.82452 13.1545 7.1728 13.5598C7.40099 13.824 7.5331 13.9832 7.76128 14.2624C8.22666 14.8269 8.74909 15.4514 8.8872 15.6075C8.97727 15.7066 9.22948 16.0038 9.44265 16.268C10.2353 17.2348 10.3794 17.406 10.7247 17.7993C10.7998 17.8804 10.9679 18.0845 11.1 18.2497C11.2351 18.4148 11.3852 18.5919 11.4333 18.643C11.4843 18.697 11.5624 18.7901 11.6104 18.8562C11.6585 18.9222 11.7545 19.0423 11.8236 19.1234C12.1028 19.4476 12.5082 19.931 12.5772 20.0181C12.6192 20.0691 12.7123 20.1802 12.7874 20.2643C12.8624 20.3484 13.1297 20.6636 13.3759 20.9669C13.6251 21.2731 13.8863 21.5884 13.9613 21.6724C14.0364 21.7535 14.1595 21.8976 14.2316 21.9877C14.3066 22.0778 14.3787 22.1679 14.3967 22.1859C14.4117 22.2039 14.5018 22.309 14.5919 22.4231C14.6819 22.5342 14.817 22.6963 14.8921 22.7834C14.9672 22.8674 15.1143 23.0416 15.2194 23.1707C15.3605 23.3388 15.4415 23.4079 15.5196 23.4319C15.5917 23.4499 16.4684 23.4589 18.1167 23.4529C20.4376 23.4439 20.6088 23.4409 20.6388 23.3929C20.6658 23.3478 20.6478 23.3148 20.5337 23.1977C20.4586 23.1166 20.3115 22.9515 20.2064 22.8284C20.1013 22.7053 19.9242 22.4981 19.8071 22.369C19.693 22.2429 19.5609 22.0898 19.5189 22.0357C19.4768 21.9787 19.3237 21.7986 19.1796 21.6364C19.0355 21.4743 18.7442 21.138 18.5311 20.8888C18.1197 20.4024 17.7895 20.0241 17.3091 19.4837C17.1439 19.2975 16.8527 18.9582 16.6635 18.7331C16.4744 18.5049 16.1771 18.1626 16.003 17.9674C15.5827 17.496 15.5256 17.436 14.6729 16.4362C14.3667 16.0819 14.2826 15.9618 14.2976 15.9168C14.3066 15.8957 14.5828 15.7967 14.9101 15.7006C15.6307 15.4844 16.2792 15.2142 16.7086 14.947C17.4442 14.4906 17.7865 14.2054 18.2909 13.6349C18.6722 13.1995 18.6962 13.1725 18.9724 12.7432C19.7621 11.5122 20.1674 9.78275 20.0263 8.2515C19.9722 7.67203 19.8281 6.95444 19.693 6.58514C19.657 6.49507 19.6059 6.34495 19.5789 6.25488C19.3627 5.58533 18.6962 4.50745 18.1197 3.89795C17.7384 3.49562 17.5913 3.35451 17.4292 3.23741C17.3301 3.16536 17.228 3.08129 17.201 3.05126C17.1409 2.98821 16.6756 2.67295 16.3783 2.49581C16.1171 2.33968 15.4836 2.04844 15.1533 1.93135C14.8441 1.82326 14.0454 1.61909 13.7332 1.56805C13.547 1.53803 12.1839 1.52902 7.46104 1.52602C4.14333 1.52302 1.39909 1.52902 1.36607 1.53503Z"
     fill="black"
     fill-opacity="0.5"
     id="path1"
     style="fill:#000000;fill-opacity:1" />
  <path
     d="M44.253 1.55309L44.181 1.58912L44.1629 4.58856C44.1539 6.23991 44.1539 11.1369 44.1599 15.4724L44.169 23.3539L44.232 23.4079C44.2921 23.459 44.5262 23.459 48.9368 23.4499C53.7738 23.4409 53.8218 23.4379 54.6595 23.3058C55.3561 23.1947 55.7704 23.0927 56.5811 22.8224C57.4488 22.5312 58.5867 21.9457 59.2743 21.4323C59.4064 21.3332 59.5655 21.2191 59.6256 21.1771C60.0129 20.9159 61.1118 19.859 61.4901 19.3786C61.8294 18.9493 62.601 17.7873 62.601 17.7063C62.601 17.6912 62.658 17.5772 62.7301 17.4541C62.7991 17.331 62.8772 17.1808 62.9012 17.1238C62.9222 17.0667 63.0003 16.8896 63.0754 16.7335C63.3516 16.136 63.5888 15.3193 63.799 14.2414C63.9821 13.3017 63.9761 11.6473 63.79 10.6685C63.6759 10.071 63.5257 9.45553 63.4327 9.19732C63.3786 9.04119 63.3126 8.84303 63.2915 8.76197C63.2705 8.6779 63.1865 8.47674 63.1114 8.3116C63.0333 8.14647 62.9523 7.96332 62.9313 7.90627C62.7691 7.47692 62.0906 6.351 61.6462 5.77453C61.0517 5.0059 60.0129 4.0151 59.3103 3.55272C59.2232 3.49267 59.1181 3.41461 59.0791 3.37858C59.0401 3.34255 58.998 3.31252 58.986 3.31252C58.974 3.31252 58.929 3.2885 58.884 3.25848C58.5837 3.05431 58.4186 2.96124 57.9922 2.74806C56.9504 2.22564 56.2598 1.97943 55.2 1.75125C55.0348 1.71522 54.8517 1.67619 54.7946 1.66118C54.7376 1.64616 54.5274 1.61013 54.3292 1.58311C53.999 1.53507 53.5516 1.52907 49.147 1.52306C45.436 1.51706 44.3101 1.52306 44.253 1.55309ZM53.9539 5.83158C54.7316 5.97569 54.9417 6.03875 55.5302 6.29395C56.0827 6.53115 56.6681 6.87042 56.9864 7.13164C57.653 7.67808 58.3585 8.4317 58.5327 8.77698C58.5627 8.83403 58.6348 8.95713 58.6978 9.0472C58.959 9.44052 59.3824 10.4824 59.4754 10.9688C59.7336 12.3169 59.6616 13.5599 59.2563 14.7128C59.1422 15.0431 58.8299 15.7096 58.6978 15.9078C58.1814 16.6854 58.0793 16.8145 57.6019 17.2739C57.0435 17.8113 56.6021 18.1266 55.9356 18.4599C55.284 18.7871 54.4283 19.0544 53.7288 19.1504C53.6477 19.1624 52.4587 19.1775 51.0926 19.1865C48.8528 19.1985 48.5976 19.1955 48.5315 19.1504L48.4595 19.1054V12.452V5.80155L48.5285 5.77453C48.5675 5.75652 49.5583 5.75051 51.1016 5.75652C53.5126 5.76552 53.6207 5.76853 53.9539 5.83158Z"
     fill="black"
     fill-opacity="0.5"
     id="path2"
     style="fill:#000000;fill-opacity:1" />
  <path
     d="M23.3081 1.83531C23.269 1.84132 23.218 1.87434 23.194 1.91037C23.1549 1.96742 23.1489 3.18341 23.1489 12.6501V23.3268L23.209 23.3929L23.272 23.4589H31.6999C39.173 23.4559 40.1338 23.4529 40.1878 23.4109C40.2479 23.3659 40.2479 23.3298 40.2479 21.3302C40.2479 19.6488 40.2419 19.2855 40.2058 19.2465C40.1698 19.1985 39.6894 19.1955 33.8647 19.1955C27.6016 19.1955 27.5625 19.1955 27.5025 19.1354C27.4424 19.0754 27.4424 19.0363 27.4424 16.8115C27.4424 14.7909 27.4484 14.5417 27.4905 14.4996C27.5325 14.4576 28.0759 14.4516 33.021 14.4516C37.939 14.4516 38.5155 14.4456 38.5755 14.4036L38.6416 14.3585V12.518C38.6416 10.7736 38.6386 10.6745 38.5875 10.6295C38.5365 10.5814 38.1071 10.5784 33.048 10.5784C27.5956 10.5784 27.5625 10.5784 27.5025 10.5184C27.4424 10.4583 27.4424 10.4253 27.4484 8.30559L27.4574 6.15283L27.5325 6.1138C27.5925 6.08378 28.8866 6.07477 33.8737 6.07477C37.3175 6.07477 40.1578 6.06576 40.1848 6.05675C40.2118 6.04775 40.2389 5.9877 40.2479 5.91564C40.2569 5.84658 40.2629 4.92183 40.2569 3.86196C40.2479 2.09953 40.2449 1.92839 40.1968 1.88335C40.1488 1.83531 39.5843 1.83231 31.7599 1.82931C27.1482 1.8263 23.3441 1.82931 23.3081 1.83531Z"
     fill="black"
     fill-opacity="0.5"
     id="path3"
     style="fill:#000000;fill-opacity:1" />
  <path
     d="M66.9846 1.83531C66.9426 1.84132 66.8915 1.86834 66.8735 1.89536C66.8435 1.93439 66.8345 4.13218 66.8345 12.6531C66.8345 22.351 66.8375 23.3689 66.8825 23.4109C66.9245 23.4529 67.1527 23.4589 68.9632 23.4589C70.6716 23.4589 71.0049 23.4529 71.0559 23.4169C71.113 23.3749 71.113 23.2668 71.119 16.5203C71.122 12.7492 71.134 9.64768 71.14 9.62667C71.179 9.52458 71.2691 9.60565 71.7735 10.2211C72.0798 10.5905 72.2839 10.8457 72.4791 11.1009C72.5601 11.206 72.8814 11.5963 73.3948 12.2148C73.578 12.434 73.8002 12.7042 73.8902 12.8153C73.9803 12.9294 74.1094 13.0855 74.1755 13.1605C74.2415 13.2386 74.3826 13.4158 74.4907 13.5509C74.5988 13.686 74.839 13.9802 75.0252 14.2054C75.7397 15.0761 75.9649 15.3523 76.1571 15.5925C76.3132 15.7907 76.5624 16.0819 76.7125 16.2441C76.8206 16.3612 76.9347 16.3822 77.4361 16.3672C77.8685 16.3552 77.8895 16.3461 78.1237 16.0429C78.1987 15.9468 78.4269 15.6706 78.6341 15.4274C78.8413 15.1842 79.0514 14.935 79.0995 14.8719C79.1505 14.8089 79.2766 14.6468 79.3847 14.5116C79.4928 14.3765 79.6429 14.1844 79.721 14.0853C79.799 13.9862 79.9131 13.8481 79.9762 13.7791C80.0392 13.71 80.1593 13.5659 80.2404 13.4638C80.3245 13.3587 80.4506 13.2026 80.5256 13.1155C80.6007 13.0314 80.7568 12.8423 80.8709 12.6952C80.988 12.5511 81.1291 12.3769 81.1892 12.3079C81.2492 12.2388 81.3453 12.1277 81.3994 12.0586C82.6994 10.4463 83.363 9.64468 83.42 9.61165C83.5371 9.5456 83.5341 9.43151 83.5311 16.4843C83.5281 22.0088 83.5341 23.3088 83.5671 23.3689L83.6062 23.4439L85.6418 23.4529C87.4313 23.4589 87.6895 23.4529 87.7525 23.4139L87.8216 23.3689V12.6681C87.8216 2.3097 87.8186 1.96442 87.7675 1.89836L87.7105 1.83231H86.2363C84.8672 1.83531 84.7531 1.83831 84.678 1.88935C84.5819 1.9494 84.6 1.92839 84.1736 2.44481C83.9935 2.66399 83.7503 2.94922 83.6332 3.08133C83.5191 3.21043 83.3149 3.45063 83.1828 3.61276C82.7264 4.17422 82.5823 4.34836 82.3571 4.61558C82.234 4.7627 82.0989 4.92483 82.0599 4.97587C82.0179 5.02691 81.9368 5.12299 81.8797 5.19205C81.8197 5.2611 81.6786 5.42924 81.5615 5.56435C81.4474 5.70247 81.2973 5.87661 81.2282 5.95167C81.1622 6.02673 81.0631 6.14983 81.009 6.22489C80.91 6.366 80.8739 6.40804 80.2554 7.13463C80.0483 7.37783 79.8261 7.64205 79.76 7.72311C79.5228 8.01135 79.3667 8.2005 79.1355 8.47973C79.0034 8.63586 78.8503 8.82201 78.7902 8.89407C78.7272 8.96913 78.6011 9.11625 78.505 9.22434C78.4119 9.33243 78.1357 9.66269 77.8955 9.95393C77.6553 10.2482 77.4331 10.5034 77.4001 10.5184C77.3671 10.5364 77.313 10.5424 77.283 10.5334C77.232 10.5154 76.9587 10.2151 76.7125 9.90589C76.6735 9.85485 76.5504 9.71073 76.4423 9.58463C76.109 9.19131 76.01 9.07421 75.9229 8.95412C75.8748 8.88806 75.8268 8.83702 75.8118 8.83702C75.7968 8.83702 75.7547 8.78598 75.7187 8.72293C75.6797 8.66288 75.5956 8.55479 75.5326 8.48573C75.4695 8.41968 75.3824 8.3146 75.3374 8.25755C75.2023 8.0804 74.875 7.68708 74.794 7.60301C74.7489 7.56098 74.6408 7.43188 74.5508 7.32078C74.4607 7.20969 74.3316 7.05657 74.2625 6.97851C74.1965 6.90344 74.0794 6.76533 74.0073 6.67225C73.8302 6.44707 73.2837 5.79254 72.4941 4.86178C72.329 4.66662 72.1608 4.46245 72.1188 4.40841C72.0767 4.35436 71.9627 4.21325 71.8636 4.09315C71.7645 3.97305 71.6444 3.82293 71.5934 3.76288C71.5453 3.69983 71.4222 3.55872 71.3231 3.44462C71.2241 3.33053 71.0649 3.14138 70.9718 3.02728C70.8788 2.91019 70.6656 2.65498 70.5005 2.45682C70.3323 2.25866 70.1972 2.09052 70.1972 2.08151C70.1972 2.0725 70.1342 2.01245 70.0591 1.9494L69.918 1.83231L68.4888 1.82931C67.7022 1.8263 67.0266 1.82931 66.9846 1.83531Z"
     fill="black"
     fill-opacity="0.5"
     id="path4"
     style="fill:#000000;fill-opacity:1" />
  <path
     d="M92.5652 1.83531C92.5231 1.84132 92.4721 1.86233 92.4541 1.87734C92.424 1.90137 92.415 4.09015 92.415 12.6381C92.415 22.348 92.418 23.3689 92.4631 23.4109C92.5051 23.4529 92.7333 23.4589 94.5258 23.4589C96.3062 23.4589 96.5524 23.4529 96.6125 23.4109L96.6785 23.3659V12.6531C96.6785 2.00044 96.6785 1.9404 96.6185 1.88635C96.5614 1.83531 96.4413 1.83231 94.6008 1.82931C93.5229 1.8263 92.6072 1.83231 92.5652 1.83531Z"
     fill="black"
     fill-opacity="0.5"
     id="path5"
     style="fill:#000000;fill-opacity:1" />
</svg>
