<?xml version="1.0" encoding="UTF-8" standalone="no"?>
<svg
   width="130"
   height="29"
   viewBox="0 0 130 29"
   fill="none"
   version="1.1"
   id="svg1"
   sodipodi:docname="samsung.svg"
   inkscape:version="1.3.2 (091e20e, 2023-11-25, custom)"
   xmlns:inkscape="http://www.inkscape.org/namespaces/inkscape"
   xmlns:sodipodi="http://sodipodi.sourceforge.net/DTD/sodipodi-0.dtd"
   xmlns="http://www.w3.org/2000/svg"
   xmlns:svg="http://www.w3.org/2000/svg">
  <defs
     id="defs1" />
  <sodipodi:namedview
     id="namedview1"
     pagecolor="#ffffff"
     bordercolor="#000000"
     borderopacity="0.25"
     inkscape:showpageshadow="2"
     inkscape:pageopacity="0.0"
     inkscape:pagecheckerboard="0"
     inkscape:deskcolor="#d1d1d1"
     inkscape:zoom="13.108672"
     inkscape:cx="70.983545"
     inkscape:cy="15.905501"
     inkscape:window-width="2560"
     inkscape:window-height="1369"
     inkscape:window-x="-8"
     inkscape:window-y="-8"
     inkscape:window-maximized="1"
     inkscape:current-layer="svg1" />
  <path
     d="M5 18.835V17.482H9.609V19.2C9.60171 19.4228 9.64233 19.6447 9.72813 19.8505C9.81393 20.0563 9.9429 20.2413 10.1063 20.3929C10.2698 20.5446 10.4638 20.6594 10.6755 20.7297C10.8871 20.7999 11.1113 20.8239 11.333 20.8C11.711 20.8474 12.093 20.75 12.4022 20.5274C12.7114 20.3048 12.9249 19.9735 13 19.6C13.1234 19.1664 13.113 18.7056 12.97 18.278C12.076 15.976 5.981 14.931 5.208 11.333C5.05015 10.5417 5.04032 9.72792 5.179 8.933C5.654 6.045 8.122 5 11.184 5C13.622 5 16.984 5.585 16.984 9.458V10.719H12.7V9.612C12.7163 9.3973 12.6858 9.18163 12.6109 8.9798C12.5359 8.77796 12.4181 8.59475 12.2656 8.44274C12.1131 8.29073 11.9295 8.17352 11.7275 8.09917C11.5254 8.02482 11.3096 7.99508 11.095 8.012C10.7294 7.97561 10.3635 8.0792 10.0712 8.3019C9.77895 8.52459 9.58197 8.84981 9.52 9.212C9.47196 9.51849 9.48214 9.83128 9.55 10.134C10.05 12.193 16.567 13.301 17.28 17.021C17.4585 17.9857 17.4684 18.974 17.309 19.942C16.892 22.893 14.336 24 11.244 24C8 24 5 22.8 5 18.835ZM60.837 18.773V17.421H65.386V19.112C65.375 19.3333 65.4122 19.5543 65.4948 19.7598C65.5775 19.9653 65.7037 20.1505 65.8648 20.3026C66.0259 20.4546 66.2181 20.57 66.428 20.6407C66.638 20.7113 66.8607 20.7357 67.081 20.712C67.4549 20.7645 67.8347 20.6731 68.1438 20.4563C68.4528 20.2394 68.6681 19.9134 68.746 19.544C68.8693 19.1206 68.8591 18.6695 68.717 18.252C67.854 15.978 61.817 14.933 61.046 11.335C60.8882 10.5548 60.878 9.75194 61.016 8.968C61.492 6.109 63.96 5.068 66.962 5.068C69.371 5.068 72.701 5.683 72.701 9.495V10.725H68.449V9.643C68.4659 9.43073 68.437 9.2173 68.3642 9.01719C68.2914 8.81709 68.1764 8.63498 68.027 8.48322C67.8776 8.33147 67.6973 8.21362 67.4984 8.13766C67.2995 8.0617 67.0865 8.02942 66.874 8.043C66.5154 8.00076 66.1544 8.09869 65.8663 8.31634C65.5782 8.53399 65.3854 8.85452 65.328 9.211C65.2795 9.51742 65.2894 9.83024 65.357 10.133C65.832 12.194 72.284 13.27 73 16.959C73.1783 17.9133 73.1881 18.8914 73.029 19.849C72.613 22.801 70.086 23.877 67.024 23.877C63.811 23.877 60.837 22.678 60.837 18.773ZM77.13 19.42C77.0882 19.0315 77.0781 18.6402 77.1 18.25V5.523H81.441V18.65C81.4354 18.8761 81.4451 19.1022 81.47 19.327C81.5582 19.6943 81.7675 20.0213 82.0642 20.2552C82.3609 20.4891 82.7277 20.6162 83.1055 20.6162C83.4833 20.6162 83.8501 20.4891 84.1468 20.2552C84.4435 20.0213 84.6528 19.6943 84.741 19.327C84.7668 19.1023 84.7768 18.8761 84.771 18.65V5.523H89.112V18.25C89.112 18.589 89.082 19.234 89.082 19.419C88.782 22.738 86.257 23.819 83.106 23.819C79.955 23.819 77.428 22.739 77.13 19.419V19.42ZM112.869 19.235C112.825 18.8472 112.806 18.4572 112.81 18.067V10.6C112.81 10.292 112.839 9.739 112.869 9.431C113.255 6.112 115.842 5.066 118.905 5.066C121.938 5.066 124.613 6.111 124.911 9.431C124.947 9.81959 124.956 10.2101 124.94 10.6V11.184H120.6V10.2C120.601 9.97302 120.581 9.74645 120.541 9.523C120.436 9.15057 120.212 8.8227 119.903 8.5892C119.594 8.3557 119.218 8.22935 118.831 8.22935C118.444 8.22935 118.068 8.3557 117.759 8.5892C117.45 8.8227 117.226 9.15057 117.121 9.523C117.071 9.79632 117.051 10.0743 117.062 10.352V18.469C117.057 18.6951 117.067 18.9212 117.092 19.146C117.19 19.5425 117.427 19.8907 117.759 20.1276C118.092 20.3645 118.498 20.4742 118.905 20.437C119.305 20.4753 119.705 20.3648 120.029 20.1266C120.352 19.8884 120.577 19.5393 120.659 19.146C120.699 18.9227 120.709 18.695 120.689 18.469V15.883H118.935V13.3H125V18.065C125.004 18.4552 124.984 18.8453 124.94 19.233C124.64 22.461 121.94 23.599 118.904 23.599C115.868 23.599 113.166 22.462 112.869 19.235ZM52.369 23.262L52.245 6.845L49.272 23.262H44.931L41.987 6.845L41.869 23.262H37.587L37.943 5.554H44.931L47.1 19.388L49.272 5.554H56.259L56.645 23.262H52.369ZM29.534 23.262L27.211 6.845L24.831 23.262H20.194L23.344 5.554H30.986L34.138 23.262H29.534ZM102.199 23.078L97.884 8.352L98.122 23.078H93.9V5.554H100.263L104.307 19.819L104.068 5.554H108.319V23.078H102.199Z"
     fill="black"
     fill-opacity="0.5"
     id="path1"
     style="opacity:1;fill:#000000;fill-opacity:1" />
</svg>
