<?xml version="1.0" encoding="UTF-8" standalone="no"?>
<svg
   width="122"
   height="29"
   viewBox="0 0 122 29"
   fill="none"
   version="1.1"
   id="svg3"
   sodipodi:docname="xiaomi.svg"
   inkscape:version="1.3.2 (091e20e, 2023-11-25, custom)"
   xmlns:inkscape="http://www.inkscape.org/namespaces/inkscape"
   xmlns:sodipodi="http://sodipodi.sourceforge.net/DTD/sodipodi-0.dtd"
   xmlns="http://www.w3.org/2000/svg"
   xmlns:svg="http://www.w3.org/2000/svg">
  <defs
     id="defs3" />
  <sodipodi:namedview
     id="namedview3"
     pagecolor="#ffffff"
     bordercolor="#000000"
     borderopacity="0.25"
     inkscape:showpageshadow="2"
     inkscape:pageopacity="0.0"
     inkscape:pagecheckerboard="0"
     inkscape:deskcolor="#d1d1d1"
     inkscape:zoom="4.2028689"
     inkscape:cx="57.460751"
     inkscape:cy="-31.050219"
     inkscape:window-width="2560"
     inkscape:window-height="1369"
     inkscape:window-x="-8"
     inkscape:window-y="-8"
     inkscape:window-maximized="1"
     inkscape:current-layer="svg3" />
  <path
     d="M34.3828 22.6976L41.5004 13.1429L35.2328 4.28222H38.1353L41.4924 8.99232C42.1917 9.96877 42.6759 10.7166 42.9557 11.2357C43.3699 10.5928 43.8595 9.9069 44.4217 9.18331L48.0989 4.28222H50.77L44.3733 13.0353L51.2596 22.6976H48.2683L43.6228 16.1288C43.3565 15.7549 43.1036 15.3836 42.8669 15.0151C42.4554 15.6311 42.1648 16.0642 41.9846 16.309L37.3149 22.6976H34.3828ZM53.8204 22.6976V4.28222H56.2629V22.7003H53.8204V22.6976ZM58.5359 22.6976L65.5997 4.27953H68.2789L75.7758 22.6976H73.0051L70.8747 17.116H63.1196L61.1209 22.6976H58.5359ZM63.8351 15.1362H70.1108L68.1901 10.0306C67.6118 8.47854 67.1733 7.19812 66.8694 6.1867C66.6165 7.38642 66.2776 8.56462 65.8526 9.73206L63.8351 15.1362ZM76.9674 13.7347C76.9674 10.6816 77.7906 8.29024 79.4314 6.56329C81.0723 4.83635 83.192 3.97287 85.7878 3.97287C87.4905 3.97287 89.0211 4.38174 90.3876 5.19142C91.7514 6.00109 92.7924 7.13356 93.508 8.58614C94.2235 10.036 94.5839 11.6823 94.5839 13.5222C94.5839 15.3863 94.2073 17.0595 93.4515 18.5282C92.6956 20.0023 91.6304 21.1186 90.2504 21.8718C88.8651 22.6304 87.3749 23.007 85.7743 23.007C84.0366 23.007 82.4899 22.5873 81.1234 21.7508C79.7596 20.9142 78.7213 19.7736 78.0192 18.3265C77.3171 16.8819 76.9674 15.3514 76.9674 13.7347ZM79.4879 13.7777C79.4879 15.9943 80.0851 17.74 81.2741 19.0124C82.4657 20.2847 83.9613 20.9249 85.7636 20.9249C87.5981 20.9249 89.1018 20.282 90.2908 18.9963C91.4744 17.7105 92.0661 15.884 92.0661 13.5168C92.0661 12.0212 91.8133 10.7139 91.3076 9.59756C90.8019 8.48392 90.0594 7.61776 89.0884 7.00445C88.1119 6.39114 87.0171 6.08448 85.8039 6.08448C84.0797 6.08448 82.5975 6.67627 81.3548 7.85985C80.1093 9.04074 79.4879 11.0125 79.4879 13.7777ZM97.6693 22.6976V4.28222H101.322L105.677 17.3177C106.081 18.5309 106.371 19.4401 106.557 20.0453C106.767 19.3755 107.098 18.391 107.541 17.0918L111.974 4.28222H115.237V22.7003H112.897V7.29227L107.523 22.7003H105.328L100.01 7.00983V22.7003H97.6693V22.6976ZM119.557 22.6976V4.28222H122V22.7003H119.557V22.6976Z"
     fill="black"
     fill-opacity="0.5"
     id="path1"
     style="fill:#000000;fill-opacity:1" />
  <path
     d="M0.56489 1.03811H26.9452C27.2573 1.03811 27.5101 1.28558 27.5101 1.59493V27.4077C27.5101 27.7144 27.2573 27.9645 26.9452 27.9645H0.56489C0.252855 27.9645 0 27.7144 0 27.4077V1.59493C0 1.28558 0.252855 1.03811 0.56489 1.03811Z"
     fill="black"
     fill-opacity="0.5"
     id="path2"
     style="fill:#000000;fill-opacity:1" />
  <path
     d="M21.1106 7.59621H24.5027V21.3876H21.1106V7.59621ZM9.02737 12.9169H12.4947V21.2746H9.02737V12.9169ZM3.04492 7.59621L6.43695 7.63387H14.8807C17.0273 7.63387 18.4799 9.51684 18.4799 11.4859C18.4826 14.6304 18.5175 21.3499 18.5175 21.3499L15.225 21.3634L15.1632 12.5269C15.1551 11.2922 14.3131 10.4933 13.0865 10.4745C11.5075 10.4529 7.50217 10.4987 6.43426 10.5121V21.3849H3.04492V7.59621Z"
     fill="white"
     id="path3" />
</svg>
